<?xml version="1.0" standalone="no"?>
<!DOCTYPE svg PUBLIC "-//W3C//DTD SVG 20010904//EN"
 "http://www.w3.org/TR/2001/REC-SVG-20010904/DTD/svg10.dtd">
<svg version="1.0" xmlns="http://www.w3.org/2000/svg"
 width="1280.000000pt" height="1078.000000pt" viewBox="0 0 1280.000000 1078.000000"
 preserveAspectRatio="xMidYMid meet">

<g transform="translate(0.000000,1078.000000) scale(0.100000,-0.100000)"
fill="#000000" stroke="none">
<path d="M12434 10766 c-206 -47 -446 -186 -1139 -664 -480 -332 -660 -453
-945 -639 -669 -436 -1179 -739 -1930 -1145 -239 -130 -1038 -526 -1295 -642
-926 -420 -1545 -615 -2195 -692 -201 -24 -603 -24 -795 0 -522 65 -976 208
-1470 461 -196 100 -380 211 -629 378 -104 70 -196 127 -203 127 -45 0 29 -95
167 -216 503 -439 1155 -777 1799 -933 290 -71 549 -101 866 -101 742 0 1333
172 2515 730 1130 533 2188 1158 3640 2150 756 517 1021 686 1250 801 169 85
245 111 340 116 256 15 276 -202 65 -717 -24 -58 -123 -286 -220 -505 -209
-471 -272 -617 -370 -860 -581 -1429 -832 -2707 -785 -3997 18 -490 67 -1134
116 -1513 22 -177 37 -220 61 -182 4 6 11 352 14 767 8 853 16 1005 90 1539
69 502 208 1169 355 1696 165 592 257 885 594 1895 126 377 252 762 280 855
158 526 216 868 176 1044 -28 123 -71 188 -149 225 -67 32 -127 38 -203 22z"/>
<path d="M12050 9858 c-167 -233 -349 -486 -405 -563 -56 -77 -191 -264 -300
-415 -1532 -2121 -2702 -3678 -3165 -4210 -516 -594 -1091 -1113 -1684 -1520
l-78 -54 -677 -43 c-372 -23 -788 -49 -926 -58 -374 -23 -692 -43 -955 -59
-129 -9 -739 -47 -1355 -86 -616 -39 -1372 -86 -1680 -106 -308 -19 -574 -34
-592 -32 l-32 3 65 100 c490 752 838 1477 1103 2295 240 744 401 1569 442
2275 13 215 7 335 -16 335 -28 0 -34 -23 -140 -540 -253 -1237 -577 -2288
-1028 -3340 -150 -351 -393 -857 -561 -1169 -31 -58 -54 -107 -51 -109 5 -5
195 3 1125 48 566 27 896 43 1470 70 118 5 305 15 415 20 110 5 344 17 520 25
176 8 457 22 625 30 168 8 586 29 930 45 344 17 807 39 1028 50 l404 19 86 47
c237 127 537 336 757 526 152 131 389 377 517 537 59 74 167 220 240 325 116
167 472 677 638 911 31 44 73 105 95 135 21 30 70 100 110 155 39 55 98 138
131 185 336 474 647 910 1852 2599 767 1074 1397 1962 1399 1972 3 10 3 19 1
19 -3 0 -141 -190 -308 -422z"/>
<path d="M10470 7332 c0 -4 11 -80 25 -168 102 -657 97 -1284 -16 -1934 -46
-262 -145 -638 -234 -886 -70 -195 -129 -336 -145 -344 -9 -5 -92 -19 -185
-31 -147 -20 -214 -23 -490 -23 -276 0 -343 3 -485 22 -224 30 -479 83 -660
137 -82 25 -157 45 -166 45 -35 0 -4 -25 72 -57 422 -181 1058 -303 1579 -303
157 0 449 18 481 30 15 6 37 51 86 177 153 392 260 807 318 1238 53 391 54
954 4 1365 -42 342 -133 740 -170 740 -8 0 -14 -4 -14 -8z"/>
<path d="M3865 4751 c-59 -34 -100 -96 -145 -219 -47 -130 -110 -394 -121
-510 -14 -155 -18 -168 -59 -221 -68 -85 -190 -121 -240 -71 -33 33 -25 62 44
145 75 89 102 142 112 214 14 108 -42 157 -132 115 -74 -35 -184 -235 -184
-334 0 -37 -9 -52 -87 -147 -10 -12 -27 -24 -39 -27 -42 -13 -104 63 -119 148
-10 51 29 259 65 351 25 64 47 144 80 295 6 30 10 80 8 110 -3 50 -5 55 -28
58 -38 4 -62 -29 -120 -163 -48 -112 -110 -302 -110 -338 0 -9 -19 -29 -42
-46 -71 -48 -247 -231 -289 -298 -7 -12 -26 -28 -41 -34 -15 -6 -53 -40 -84
-75 -58 -67 -97 -94 -134 -94 -24 0 -52 54 -70 135 -21 98 -30 116 -66 131
-40 17 -62 9 -89 -33 -10 -15 -46 -57 -79 -93 -34 -36 -66 -75 -72 -85 -19
-33 -41 -11 -47 48 -7 75 -34 121 -117 202 -137 133 -219 233 -235 288 -14 46
-13 53 5 94 18 42 133 173 152 173 18 0 6 -25 -28 -56 -65 -60 -23 -98 53 -47
23 15 75 57 117 93 80 68 96 99 81 157 -16 67 -53 69 -167 11 -99 -49 -216
-136 -284 -210 -87 -96 -125 -232 -91 -326 13 -35 69 -104 131 -161 185 -170
236 -228 236 -269 0 -11 -9 -31 -21 -46 -11 -14 -18 -30 -14 -35 7 -13 -63
-91 -81 -91 -23 0 -16 14 16 32 29 17 43 58 19 58 -18 0 -231 -119 -257 -143
-13 -12 -28 -30 -34 -40 -23 -43 57 -96 125 -83 52 10 176 88 254 161 66 61
79 68 140 81 57 12 74 20 113 59 25 25 53 45 61 45 17 0 47 -37 78 -98 35 -69
54 -82 113 -82 60 0 92 16 175 87 56 48 74 44 53 -11 -17 -44 -12 -111 8 -129
25 -23 80 -21 119 3 37 22 177 195 198 243 19 44 60 92 72 84 6 -4 20 -33 32
-66 37 -103 95 -141 194 -128 32 4 48 13 67 38 63 83 77 94 95 79 9 -7 25 -31
36 -52 35 -68 107 -85 207 -49 60 22 70 29 129 84 44 42 63 42 63 -1 0 -15 10
-60 21 -99 20 -68 24 -74 65 -93 31 -16 50 -19 73 -13 38 10 112 73 157 135
28 37 42 48 63 48 15 0 36 8 47 18 11 9 30 26 43 37 l24 20 -17 -32 c-23 -47
-20 -89 9 -118 13 -14 35 -25 47 -25 38 0 127 66 224 167 86 89 93 94 103 75
6 -11 11 -29 11 -39 0 -36 38 -82 78 -94 66 -19 104 0 204 103 47 50 104 112
125 138 21 26 46 53 57 60 39 25 39 -4 2 -162 -42 -177 -40 -208 14 -208 35 0
92 53 167 154 51 69 157 166 181 166 15 0 36 -23 120 -130 47 -60 106 -47 185
40 45 50 67 57 67 21 0 -23 53 -105 106 -165 24 -26 44 -52 44 -56 0 -5 -16
-28 -35 -52 -44 -56 -102 -156 -126 -218 -14 -38 -17 -63 -12 -116 9 -92 30
-114 111 -114 77 0 142 33 221 112 139 140 152 278 40 417 l-32 40 57 90 57
90 -18 35 -18 36 -52 -68 c-28 -37 -62 -77 -73 -87 l-22 -20 -45 49 c-58 64
-75 100 -76 156 -1 43 4 52 84 150 128 157 159 207 159 256 0 68 -45 92 -105
56 -47 -29 -201 -240 -234 -320 -15 -39 -49 -98 -75 -132 -25 -34 -46 -66 -46
-70 0 -12 -34 -22 -53 -14 -8 3 -30 39 -48 81 -36 81 -67 113 -108 113 -46 0
-115 -54 -196 -153 -43 -53 -81 -94 -85 -92 -4 3 3 41 15 84 13 44 29 114 36
156 16 94 4 128 -48 133 -53 5 -87 -22 -191 -155 -55 -70 -131 -162 -170 -203
-66 -72 -70 -74 -96 -62 -32 15 -46 48 -46 113 0 61 -13 89 -43 89 -31 0 -59
-22 -172 -134 -106 -105 -145 -136 -145 -117 0 21 76 122 177 236 10 11 58 64
106 118 72 80 88 103 83 121 -12 47 -85 35 -159 -27 -38 -32 -257 -246 -282
-276 -5 -6 -28 -28 -50 -49 -22 -20 -45 -46 -51 -57 -21 -37 -28 -5 -10 44 9
27 16 64 14 83 l-3 33 -55 -3 c-30 -2 -65 -10 -77 -17 -29 -19 -79 -109 -94
-169 -12 -49 -12 -50 17 -72 l28 -23 -20 -28 c-26 -34 -77 -51 -99 -33 -22 18
-55 134 -55 191 0 41 11 69 65 172 36 68 65 129 65 136 0 7 8 25 18 39 69 102
162 398 162 518 0 36 -5 74 -10 85 -16 28 -66 24 -125 -10z m10 -248 c-3 -10
-18 -60 -32 -112 -30 -115 -89 -271 -109 -291 -45 -45 9 143 97 337 10 23 19
48 19 56 0 16 9 27 23 27 5 0 6 -8 2 -17z m-534 -500 c-21 -46 -73 -105 -83
-95 -12 12 22 92 52 122 29 29 49 13 31 -27z m-581 -47 c0 -71 -194 -356 -242
-356 -37 0 105 253 195 348 37 38 47 40 47 8z m3160 -438 c50 -81 45 -140 -19
-224 -42 -56 -102 -94 -148 -94 -37 0 -44 17 -30 70 17 66 141 280 163 280 8
0 23 -15 34 -32z"/>
<path d="M2065 4333 c-64 -58 -85 -90 -85 -130 0 -55 8 -63 59 -63 39 0 53 5
83 33 29 26 38 45 52 104 19 86 15 103 -28 103 -23 -1 -44 -13 -81 -47z"/>
<path d="M7533 3133 c9 -2 25 -2 35 0 9 3 1 5 -18 5 -19 0 -27 -2 -17 -5z"/>
<path d="M7660 3119 c108 -11 321 -31 1055 -99 1214 -111 1310 -120 1649 -150
187 -16 341 -32 344 -35 5 -4 2 -11 -73 -190 -25 -60 -114 -274 -197 -475 -82
-201 -153 -368 -156 -372 -4 -3 -182 -11 -397 -17 -560 -17 -1289 -39 -1820
-56 -1644 -53 -1293 -53 -2430 0 -1066 51 -1497 71 -2400 110 -930 41 -1236
54 -1505 65 -471 19 -693 30 -696 33 -3 3 56 398 60 404 1 1 123 9 271 17 149
9 344 21 435 26 91 5 284 16 430 25 475 27 1241 72 1870 110 494 30 1048 65
2025 130 121 8 270 17 330 21 l110 7 75 52 c240 168 396 278 405 288 13 13 -2
4 -271 -169 l-219 -142 -165 -6 c-91 -4 -358 -13 -595 -21 -970 -33 -1021 -35
-1890 -70 -709 -28 -1685 -69 -2055 -85 -129 -6 -381 -17 -559 -25 -178 -8
-325 -15 -326 -17 -1 -2 -19 -109 -40 -238 -20 -129 -45 -282 -55 -340 -10
-58 -15 -108 -11 -111 3 -4 110 -12 236 -18 127 -6 316 -16 420 -21 168 -9
352 -18 1220 -60 116 -5 257 -12 315 -15 58 -3 251 -12 430 -20 179 -8 413
-19 520 -25 107 -5 350 -17 540 -25 190 -8 491 -22 670 -30 179 -8 485 -21
680 -30 195 -8 444 -20 552 -25 128 -6 268 -6 400 0 112 5 320 14 463 20 143
6 314 13 380 16 66 2 392 16 725 30 333 13 704 29 825 34 121 5 375 16 565 25
190 8 396 18 457 21 l113 7 71 181 c257 651 419 1069 416 1073 -8 7 -637 48
-2362 153 -88 5 -304 19 -479 30 -176 11 -344 19 -375 19 -55 -2 -55 -2 19
-10z"/>
<path d="M8650 2911 c-100 -19 -173 -70 -210 -145 -11 -24 -36 -120 -56 -212
-19 -93 -57 -267 -85 -388 -27 -120 -48 -221 -45 -223 14 -15 121 321 161 507
50 235 78 296 153 344 84 53 135 60 402 59 271 -1 455 -10 1069 -53 228 -17
417 -28 419 -25 3 3 0 5 -6 5 -6 0 -105 11 -219 25 -699 83 -1439 133 -1583
106z"/>
<path d="M7142 2833 c-107 -182 -228 -492 -296 -759 -24 -96 -57 -276 -51
-282 1 -1 20 28 42 65 135 227 267 582 329 882 34 168 30 185 -24 94z"/>
<path d="M9261 2744 c-57 -124 -132 -361 -166 -523 -34 -163 -103 -253 -218
-285 -101 -29 -421 -53 -1082 -81 -541 -23 -748 -35 -754 -42 -9 -9 1224 5
1494 17 371 17 434 29 508 103 49 49 70 102 101 250 15 69 51 226 81 348 54
216 63 272 36 213z"/>
<path d="M1320 1595 l-16 -50 -69 -5 -70 -5 62 -6 c35 -3 64 -7 66 -10 3 -2
-2 -42 -9 -89 -7 -47 -13 -117 -13 -157 -1 -59 -4 -72 -18 -76 -17 -4 -17 -5
0 -6 14 -1 17 -11 17 -53 0 -63 26 -239 42 -288 11 -34 11 -34 21 -12 8 18 17
22 36 19 14 -3 93 -16 174 -29 l148 -23 11 -40 c6 -24 13 -34 16 -25 3 8 8 24
13 36 l7 21 214 -31 213 -31 10 -32 c12 -41 21 -42 30 -3 6 28 10 30 38 25 54
-9 237 -33 346 -47 57 -7 105 -17 107 -23 1 -5 8 -30 15 -55 l12 -45 13 48 c7
27 14 50 16 51 4 4 529 -62 544 -68 6 -2 15 -25 18 -50 9 -57 22 -59 31 -6 4
22 11 42 16 46 5 3 127 -8 272 -25 144 -17 275 -32 291 -33 33 -3 42 -17 51
-72 8 -46 20 -35 30 26 7 37 7 37 48 32 23 -3 162 -18 309 -33 147 -15 270
-30 274 -33 3 -4 11 -30 18 -60 l12 -53 14 57 13 58 36 -5 c46 -6 200 -21 426
-41 99 -9 181 -17 182 -18 2 -1 8 -38 14 -82 17 -113 24 -118 39 -26 8 45 17
87 20 93 6 8 79 5 276 -10 148 -12 288 -21 311 -21 55 0 69 -16 77 -90 4 -34
11 -71 15 -83 7 -17 9 -14 15 21 3 24 11 65 17 93 l11 50 91 -5 92 -5 -90 17
c-79 15 -90 20 -88 37 14 145 23 278 23 331 l0 64 43 1 42 2 -40 6 -40 6 -6
191 c-4 106 -10 213 -13 238 l-7 46 68 1 68 2 -64 8 c-35 4 -68 14 -72 20 -4
7 -11 39 -14 71 -4 32 -10 58 -14 58 -4 0 -13 -28 -19 -61 -6 -34 -14 -64 -17
-67 -4 -5 -556 42 -632 54 -30 4 -32 7 -38 59 -9 71 -21 78 -30 17 -3 -26 -9
-53 -13 -59 -7 -10 -126 -3 -567 34 l-90 8 -11 55 -11 55 -11 -40 c-7 -22 -12
-46 -12 -52 0 -16 -4 -16 -305 2 -350 22 -333 19 -341 60 -7 41 -19 38 -28 -6
l-6 -31 -102 7 c-57 5 -195 13 -307 19 l-204 11 -12 40 -12 40 -10 -35 -9 -35
-105 1 c-57 0 -184 4 -281 8 l-177 8 -14 47 -14 46 -9 -45 c-9 -39 -13 -45
-35 -44 -13 1 -122 5 -241 9 l-218 7 -10 42 c-6 22 -12 46 -14 51 -2 6 -9 -12
-17 -40 -13 -45 -18 -50 -42 -49 -15 0 -109 1 -210 2 l-183 2 -15 48 -15 47
-15 -45 c-9 -25 -19 -44 -22 -42 -4 1 -78 2 -166 2 l-158 0 -14 52 -14 53 -15
-50z m223 -99 c70 -7 130 -16 133 -19 3 -3 1 -43 -5 -88 -6 -45 -11 -108 -11
-140 0 -32 -3 -60 -7 -62 -5 -2 -64 -2 -133 2 l-125 6 -6 122 c-4 67 -10 138
-13 157 -8 43 -20 41 167 22z m501 -46 c60 -5 111 -11 113 -13 2 -2 -1 -35 -7
-73 -5 -38 -10 -100 -10 -137 l0 -69 -152 7 c-228 9 -204 -6 -212 138 -3 67
-9 133 -13 146 l-6 24 89 -6 c49 -4 138 -11 198 -17z m445 -35 c107 -9 196
-17 198 -19 1 -1 -3 -64 -9 -139 l-12 -137 -30 4 c-17 3 -78 8 -136 11 -58 3
-135 8 -171 11 l-66 6 -7 125 c-4 68 -10 131 -13 139 -7 18 1 18 246 -1z m646
-46 c88 -6 161 -12 162 -13 2 -2 -1 -36 -7 -77 -5 -41 -10 -103 -10 -138 l0
-64 -67 6 c-38 3 -148 12 -245 18 l-178 13 0 61 c0 34 -3 97 -7 140 l-6 78 99
-6 c54 -4 171 -12 259 -18z m658 -39 c88 -5 160 -10 162 -12 2 -2 0 -35 -5
-73 -5 -39 -9 -102 -10 -142 0 -39 -3 -74 -7 -76 -6 -3 -522 38 -530 42 0 1
-4 40 -7 89 -4 48 -8 111 -11 141 l-4 54 127 -7 c70 -4 198 -11 285 -16z m570
-30 c125 -6 239 -10 253 -10 23 0 24 -3 19 -32 -3 -18 -10 -91 -15 -162 -6
-71 -12 -131 -14 -133 -3 -4 -213 14 -431 37 -49 5 -95 10 -102 10 -13 0 -20
51 -27 207 l-5 102 47 -5 c26 -2 149 -9 275 -14z m930 -36 c57 -6 59 -7 53
-33 -3 -14 -11 -99 -17 -188 -12 -157 -13 -162 -33 -158 -12 2 -138 16 -281
31 -143 14 -266 28 -272 30 -10 2 -13 35 -13 116 0 62 -3 137 -7 167 l-6 53
259 -6 c142 -4 285 -9 317 -12z m611 -14 l169 0 -6 -52 c-3 -29 -12 -131 -18
-225 -12 -164 -14 -173 -34 -173 -14 0 -543 65 -571 70 0 0 -4 80 -7 178 -3
98 -9 187 -13 197 -7 17 0 18 152 12 87 -4 235 -7 328 -7z m-4324 -104 l75
-11 6 -97 c4 -54 10 -119 14 -144 l7 -46 -59 6 c-32 3 -106 8 -165 12 -70 4
-108 10 -108 18 0 6 6 43 14 81 8 39 17 101 21 138 l7 68 56 -7 c32 -3 91 -12
132 -18z m410 -51 c74 -9 138 -19 141 -23 9 -10 21 -264 12 -259 -5 3 -91 10
-193 17 -102 7 -189 16 -193 20 -4 4 -4 36 2 71 5 35 12 95 16 133 l7 68 36
-6 c21 -3 98 -12 172 -21z m497 -56 c98 -11 178 -21 179 -22 1 -1 4 -57 8
-125 l6 -123 -83 6 c-189 16 -358 33 -361 36 -4 4 14 217 20 237 5 16 22 16
231 -9z m572 -59 c113 -11 208 -23 212 -27 12 -13 16 -243 4 -243 -33 0 -498
50 -502 53 -2 3 1 51 7 107 5 56 10 111 10 122 0 16 5 18 33 13 17 -3 124 -14
236 -25z m645 -60 c120 -11 220 -21 222 -23 2 -1 7 -61 11 -131 l8 -128 -55 6
c-30 3 -143 15 -250 26 -107 11 -210 23 -228 26 l-33 5 6 102 c9 153 8 149 58
142 23 -3 141 -14 261 -25z m666 -55 c102 -8 197 -15 211 -15 l26 0 10 -142
c5 -79 8 -145 7 -147 -2 -1 -87 7 -190 19 -320 36 -393 46 -397 51 -2 2 -1 31
4 64 4 33 8 91 8 129 l1 69 68 -7 c37 -4 150 -13 252 -21z m700 -51 c134 -8
245 -16 246 -17 1 -1 4 -75 6 -164 5 -161 5 -163 -16 -163 -11 0 -104 11 -206
25 -102 14 -230 31 -285 38 l-100 13 1 29 c4 84 16 242 20 253 3 9 16 12 46 8
24 -4 153 -13 288 -22z m700 -39 c146 -8 266 -14 268 -15 1 0 2 -48 3 -107 0
-60 4 -148 8 -198 4 -49 6 -91 5 -93 -2 -3 -627 88 -631 92 -1 1 3 77 10 169
l11 167 30 0 c17 -1 150 -7 296 -15z"/>
<path d="M9799 1495 l-15 -60 -231 -3 -231 -2 -7 32 c-12 53 -18 55 -30 9 -12
-51 15 -46 -290 -56 l-211 -7 -10 39 -11 38 -7 -30 c-4 -16 -9 -35 -11 -41 -2
-8 -369 -38 -490 -39 -5 0 -15 18 -21 40 l-11 40 -12 -42 c-7 -24 -15 -43 -19
-43 -13 -1 -347 -29 -413 -36 l-66 -6 -10 48 c-10 52 -12 51 -28 -29 -4 -22
-13 -23 -257 -50 -139 -15 -256 -28 -260 -27 -4 0 -12 28 -19 62 -13 67 -21
61 -33 -24 -8 -51 -10 -52 -109 -64 -82 -10 -70 -24 19 -24 l77 0 -6 -62 c-4
-35 -10 -129 -13 -210 l-7 -146 -66 -13 c-106 -19 -115 -30 -20 -23 l85 6 13
-198 c6 -110 15 -213 18 -230 l5 -31 -99 -26 c-77 -21 -87 -25 -48 -22 28 3
72 6 100 7 l50 2 15 -79 c17 -89 27 -87 37 5 7 71 21 90 69 90 36 0 385 37
420 45 20 4 23 -2 39 -93 20 -109 26 -106 45 26 l12 80 61 6 c34 4 138 18 232
31 178 25 184 25 186 -20 0 -11 4 -29 8 -40 7 -16 11 -8 20 37 l12 57 47 7
c26 3 117 17 202 30 85 14 174 27 196 30 l41 6 15 -58 15 -59 14 64 c7 35 18
65 24 66 11 3 421 75 445 78 11 1 18 -15 26 -55 19 -94 25 -100 40 -38 7 30
13 67 14 82 0 20 6 29 23 33 71 16 421 84 422 82 2 -1 10 -38 20 -82 20 -89
24 -86 45 32 l13 71 96 22 c53 12 116 28 141 36 l45 14 -45 -5 c-25 -2 -87 -7
-139 -11 l-94 -7 6 69 c4 38 7 112 7 165 l0 95 108 21 107 20 -106 2 -107 1
-5 43 c-6 41 -21 192 -22 212 0 6 45 17 100 26 l100 16 -103 2 c-72 1 -104 5
-107 14 -2 6 -10 35 -17 62 l-14 50 -15 -60z m-23 -130 c-3 -8 -8 -66 -12
-130 l-7 -115 -41 -1 c-23 0 -110 -6 -195 -12 -103 -8 -154 -9 -156 -2 -5 15
-25 228 -23 230 5 3 361 42 402 44 30 1 37 -2 32 -14z m-522 -127 c-3 -51 -7
-107 -10 -124 l-4 -31 -201 -17 c-110 -10 -203 -16 -205 -13 -7 6 -27 227 -22
232 2 2 91 11 198 20 107 9 202 17 210 19 40 9 40 9 34 -86z m-538 -50 c-3
-50 -6 -105 -6 -123 l0 -31 -205 -23 c-113 -13 -209 -21 -212 -17 -3 3 -10 56
-15 118 -4 62 -10 119 -13 126 -2 6 -3 12 -2 13 5 2 367 26 411 28 l49 1 -7
-92z m-542 -75 c-4 -76 -7 -139 -8 -140 -4 -6 -397 -55 -402 -50 -3 3 -10 54
-15 114 -4 59 -11 127 -14 151 l-6 42 38 1 c31 1 187 8 376 17 l38 2 -7 -137z
m-520 60 c-3 -32 -9 -107 -12 -167 l-7 -110 -205 -32 c-113 -18 -212 -33 -220
-34 -13 0 -18 27 -28 158 -7 86 -15 174 -18 194 l-7 38 184 3 c101 1 214 3
251 5 l68 2 -6 -57z m2106 -190 c1 -43 5 -112 10 -153 4 -41 7 -77 5 -79 -6
-5 -409 -50 -413 -46 -3 2 -1 70 3 150 7 138 8 145 29 150 44 9 322 53 344 54
21 1 22 -3 22 -76z m-516 -90 c4 -49 9 -114 12 -145 6 -54 5 -57 -18 -62 -44
-10 -409 -58 -412 -55 -2 2 -1 70 2 150 l5 146 181 25 c99 14 191 26 203 27
20 1 22 -5 27 -86z m-527 -130 c6 -82 10 -149 9 -149 -3 -3 -441 -71 -444 -69
-2 2 0 74 5 161 l8 159 70 7 c39 5 122 14 185 22 63 7 124 14 136 15 19 1 21
-7 31 -146z m-542 -40 c4 -71 8 -143 9 -162 l1 -34 -205 -38 c-113 -21 -210
-38 -216 -38 -10 -1 -8 348 3 359 3 4 305 35 374 39 l26 1 8 -127z m-531 -85
c3 -90 9 -173 12 -184 6 -24 34 -16 -306 -88 -90 -19 -165 -34 -166 -33 -1 1
1 101 4 222 l7 220 130 7 c72 4 146 9 165 11 19 2 60 4 91 5 l56 2 7 -162z"/>
<path d="M6606 1359 c-44 -259 -62 -597 -47 -874 11 -207 36 -434 50 -448 8
-8 20 56 42 223 17 135 26 467 18 664 -8 182 -32 415 -47 457 -8 20 -10 17
-16 -22z"/>
</g>
</svg>
